<svg id="Group_521" data-name="Group 521" xmlns="http://www.w3.org/2000/svg" width="26.711" height="36.223" viewBox="0 0 26.711 36.223">
  <path id="Path_413" data-name="Path 413" d="M336.621,459.334a16.468,16.468,0,0,1-8.016-2.063,10.959,10.959,0,0,0-2.694,4.8,22.108,22.108,0,0,0,21.424,0,11.006,11.006,0,0,0-2.7-4.8A16.474,16.474,0,0,1,336.621,459.334Z" transform="matrix(1, -0.017, 0.017, 1, -333.135, -422.861)" fill="#0000dc"/>
  <path id="Path_414" data-name="Path 414" d="M350.066,415.1a13.858,13.858,0,0,1-13.856,13.858,11.1,11.1,0,0,1-11.1-11.094v-.008a10.966,10.966,0,0,1,.812-4.158,11.093,11.093,0,0,1,20.558-.015.037.037,0,0,1,0,.015.028.028,0,0,1,0,.01.075.075,0,0,1-.005.012,11.091,11.091,0,0,1-4.814,5.479l-.007,0a.064.064,0,0,1-.017,0,.043.043,0,0,1-.042-.044v-.011a5.543,5.543,0,1,0-10.762.1A5.445,5.445,0,0,0,334.058,423a10.331,10.331,0,0,0,6.864-.22,14.558,14.558,0,0,0,8.749-9.932l.037-.169c.016-.078.019-.109.061-.112s.059.018.075.095c.008.034.041.19.041.19A14.068,14.068,0,0,1,350.066,415.1Z" transform="translate(-325.115 -403.848)" fill="#0000dc"/>
  <path id="Path_415" data-name="Path 415" d="M373.51,407.344a.044.044,0,0,1-.045.044.041.041,0,0,1-.036-.023h0a2.437,2.437,0,0,0-1.54-1.236,2.307,2.307,0,0,0-.487-.076.874.874,0,0,0-.148-.009,2.326,2.326,0,0,0-.888.171,2.4,2.4,0,0,0-1.227,1.048c-.02.032-.037.064-.057.1,0,.005,0,.007-.006.011a.042.042,0,0,1-.035.019.047.047,0,0,1-.045-.046v0s.089-.587.143-.875v0a15.969,15.969,0,0,1,.38-1.58c.124-.423.267-.842.428-1.255a14.476,14.476,0,0,1,.589-1.356q.311-.642.677-1.252l0-.005a.051.051,0,0,1,.037-.019.045.045,0,0,1,.036.019l0,.005h0a16.574,16.574,0,0,1,2.215,6.306l0,.013Z" transform="translate(-346.799 -400.997)" fill="#0000dc"/>
</svg>
